<svg width="10" height="10" viewBox="0 0 10 10" fill="none" xmlns="http://www.w3.org/2000/svg">
  <path d="M9.12266 5.55586C9.08258 5.51569 9.03231 5.4872 8.97726 5.47343C8.9222 5.45967 8.86444 5.46116 8.81016 5.47773C8.21429 5.65788 7.58071 5.67298 6.97694 5.52144C6.37316 5.3699 5.82181 5.05739 5.38163 4.61721C4.94145 4.17703 4.62894 3.62568 4.4774 3.0219C4.32586 2.41812 4.34096 1.78454 4.5211 1.18867C4.53782 1.13438 4.53942 1.07655 4.52573 1.02141C4.51204 0.966274 4.48358 0.915911 4.44341 0.875739C4.40324 0.835567 4.35288 0.807106 4.29774 0.793417C4.2426 0.779728 4.18477 0.781329 4.13048 0.798048C3.30666 1.05041 2.58342 1.55617 2.06368 2.24336C1.60915 2.84682 1.3319 3.56507 1.26308 4.31741C1.19426 5.06976 1.33658 5.82639 1.67407 6.5023C2.01156 7.17821 2.53084 7.74663 3.17358 8.14369C3.81631 8.54074 4.55702 8.75071 5.31251 8.75C6.19389 8.75272 7.05183 8.46619 7.7547 7.93438C8.44189 7.41463 8.94765 6.6914 9.20001 5.86758C9.21653 5.81349 9.21807 5.75592 9.20445 5.70102C9.19083 5.64613 9.16256 5.59595 9.12266 5.55586ZM7.37891 7.43516C6.71702 7.9337 5.89731 8.17636 5.07069 8.11848C4.24407 8.0606 3.46618 7.70607 2.88022 7.12016C2.29426 6.53424 1.93966 5.75638 1.88172 4.92976C1.82377 4.10315 2.06637 3.28342 2.56485 2.62149C2.88962 2.1926 3.30949 1.84494 3.79141 1.60586C3.76396 1.79853 3.75012 1.99289 3.75001 2.1875C3.75115 3.26459 4.17952 4.29725 4.94114 5.05887C5.70276 5.82049 6.73542 6.24886 7.81251 6.25C8.00751 6.24994 8.20227 6.2361 8.39532 6.20859C8.15602 6.6906 7.80808 7.11048 7.37891 7.43516Z" fill="white" fill-opacity="0.8"/>
</svg>
